<svg xmlns="http://www.w3.org/2000/svg" xmlns:xlink="http://www.w3.org/1999/xlink" version="1.1" x="0px" y="0px" viewBox="0 0 100 100" enable-background="new 0 0 100 100" xml:space="preserve" style="max-width:100%" height="100%"><path d="M89.441,48.811c-4.304-4.7-10.824-6.658-16.954-5.199l-5.755-17.289h9.814c1.994,0,3.617,1.622,3.617,3.617  s-1.622,3.617-3.617,3.617c-0.839,0-1.52,0.68-1.52,1.52c0,0.839,0.68,1.52,1.52,1.52c3.67,0,6.656-2.986,6.656-6.656  c0-3.67-2.986-6.656-6.656-6.656H64.625c-0.028,0-0.053,0.007-0.081,0.008c-0.054,0.003-0.108,0.007-0.163,0.016  c-0.053,0.009-0.104,0.021-0.155,0.035c-0.027,0.007-0.055,0.009-0.082,0.018c-0.018,0.006-0.033,0.016-0.051,0.023  c-0.052,0.019-0.101,0.043-0.15,0.067c-0.042,0.021-0.083,0.042-0.123,0.067c-0.042,0.026-0.081,0.056-0.12,0.086  c-0.039,0.03-0.079,0.061-0.115,0.094c-0.035,0.033-0.066,0.068-0.097,0.104c-0.033,0.037-0.065,0.074-0.094,0.114  c-0.029,0.04-0.053,0.082-0.078,0.125c-0.024,0.041-0.048,0.082-0.068,0.125c-0.021,0.045-0.037,0.091-0.053,0.138  c-0.016,0.047-0.032,0.093-0.044,0.142c-0.011,0.045-0.018,0.091-0.024,0.137c-0.008,0.054-0.015,0.109-0.017,0.164  c-0.001,0.019-0.006,0.036-0.006,0.055c0,0.028,0.007,0.055,0.008,0.083c0.003,0.053,0.007,0.106,0.016,0.159  c0.009,0.053,0.021,0.105,0.035,0.156c0.007,0.027,0.009,0.055,0.018,0.082l2.477,7.44H36.991v-5.986l3.82,0.93  c0.121,0.029,0.242,0.043,0.361,0.043c0.685,0,1.306-0.466,1.475-1.161c0.199-0.815-0.302-1.638-1.117-1.836l-11.398-2.775  c-0.816-0.199-1.638,0.302-1.836,1.117c-0.199,0.815,0.302,1.638,1.117,1.836l4.565,1.111c-0.014,0.084-0.026,0.169-0.026,0.257  v7.675L22.967,60.025c-0.04,0.093-0.07,0.192-0.091,0.293c-0.041,0.202-0.04,0.406,0,0.6c0.009,0.047,0.027,0.091,0.041,0.137  c0.015,0.048,0.026,0.098,0.045,0.144c0.02,0.049,0.048,0.093,0.073,0.139c0.022,0.04,0.04,0.082,0.065,0.121  c0.026,0.04,0.059,0.074,0.089,0.111c0.032,0.04,0.061,0.081,0.097,0.118c0.036,0.036,0.078,0.066,0.118,0.099  c0.036,0.03,0.069,0.062,0.108,0.089c0.164,0.112,0.351,0.192,0.553,0.233c0.1,0.02,0.201,0.031,0.301,0.031  c0.001,0,0.003,0,0.004,0h13.457c-0.771,7.327-6.987,12.926-14.355,12.925c-0.253,0-0.508-0.007-0.763-0.02  c-3.853-0.202-7.397-1.892-9.979-4.759c-2.582-2.867-3.893-6.568-3.691-10.421c0.202-3.853,1.892-7.397,4.759-9.98  c2.867-2.582,6.57-3.889,10.421-3.691c0.837,0.05,1.553-0.6,1.597-1.438c0.044-0.838-0.6-1.553-1.438-1.597  c-9.633-0.508-17.87,6.919-18.374,16.547C5.757,64.37,7.344,68.85,10.47,72.32c3.125,3.47,7.415,5.516,12.079,5.76  c0.313,0.016,0.624,0.024,0.935,0.024c4.325,0,8.442-1.577,11.679-4.493c3.319-2.989,5.331-7.044,5.713-11.472h1.78  c0.694,3.077,3.448,5.383,6.733,5.383c3.806,0,6.903-3.097,6.903-6.903c0-2.237-1.07-4.228-2.725-5.49L67.81,39.184L75.105,61.1  c0.212,0.637,0.805,1.04,1.442,1.04c0.159,0,0.321-0.025,0.48-0.078c0.796-0.265,1.227-1.126,0.962-1.922l-4.537-13.631  c4.989-1.09,10.253,0.539,13.748,4.355c5.379,5.874,4.977,15.03-0.897,20.409c-5.874,5.38-15.03,4.977-20.409-0.898  c-2.606-2.846-3.948-6.535-3.778-10.39c0.169-3.855,1.83-7.413,4.676-10.018c0.619-0.567,0.661-1.528,0.094-2.147  c-0.567-0.619-1.528-0.661-2.147-0.094c-3.444,3.154-5.454,7.461-5.659,12.126c-0.205,4.666,1.419,9.132,4.573,12.576  c3.443,3.76,8.165,5.668,12.902,5.668c4.22,0,8.451-1.514,11.801-4.582C95.465,67.003,95.952,55.922,89.441,48.811z M42.656,59.1  h-1.778c-0.49-5.585-3.652-10.654-8.524-13.536l3.215-7.635L44.3,55.96C43.502,56.832,42.925,57.908,42.656,59.1z M31.161,48.397  c3.749,2.366,6.198,6.33,6.663,10.704h-11.17L31.161,48.397z M49.389,64.483c-2.131,0-3.864-1.733-3.864-3.864  c0-2.131,1.733-3.864,3.864-3.864c2.131,0,3.864,1.733,3.864,3.864C53.253,62.75,51.519,64.483,49.389,64.483z M50.649,53.834  c-0.409-0.076-0.83-0.117-1.26-0.117c-0.904,0-1.767,0.176-2.559,0.494l-8.934-18.448h28.775l0.033,0.098L50.649,53.834z" style="" fill="#E03033"></path></svg>