<?xml version="1.0"?>
<svg xmlns="http://www.w3.org/2000/svg" height="512px" viewBox="0 -2 479.86463 479" width="512px" class=""><g><path d="m387.902344 292.433594c-10.074219.019531-20.074219 1.707031-29.597656 4.992187l-23.082032-52.195312c0-.070313-.085937-.109375-.117187-.183594-.035157-.070313 0-.109375 0-.167969l-13.058594-26.046875 24.519531-18.398437h25.335938c6.628906 0 12 5.371094 12 12 0 6.625-5.371094 12-12 12h-12c-4.417969 0-8 3.582031-8 8 0 4.417968 3.582031 8 8 8h12c15.464844 0 28-12.539063 28-28 0-15.464844-12.535156-28-28-28h-28c-1.730469 0-3.414063.558594-4.796875 1.597656l-32 24c-3.109375 2.308594-4.121094 6.507812-2.402344 9.976562l11.199219 22.328126c-16.101563 2.914062-31.925782 7.195312-47.300782 12.800781-.320312.121093-.625.246093-.945312.359375-4.929688 1.824218-9.800781 3.800781-14.625 5.886718-1.09375.472657-2.175781.960938-3.253906 1.441407-4.113282 1.84375-8.183594 3.789062-12.21875 5.832031-1.199219.609375-2.398438 1.191406-3.589844 1.808594-4.953125 2.597656-9.863281 5.296875-14.695312 8.191406l-7.050782 4.238281-1.527344.921875c-4.800781 2.871094-9.535156 5.910156-14.222656 9.015625l-18.402344-55.265625c4.488282-1.851562 8.566407-4.570312 12-8l5.144532-5.132812h12.6875c13.257812 0 24-10.746094 24-24 0-13.257813-10.742188-24-24-24h-63.03125c-10.097656-.003906-19.203125 6.082031-23.066406 15.410156-3.867188 9.332031-1.730469 20.070312 5.410156 27.210938l10.546875 10.546874c6.515625 6.425782 15.175781 10.21875 24.316406 10.648438l20.714844 62.140625c-5.648438 4.121094-11.199219 8.34375-16.617188 12.800781l-7.503906 6.136719c-2.144531-2.25-4.402344-4.382813-6.769531-6.398437v-42.496094c0-13.257813-10.742188-24-24-24h-80c-13.253906 0-24 10.742187-24 24v50.191406c-27.625 30.398438-31.738282 75.4375-10.074219 110.339844s63.851563 51.199218 103.355469 39.925781 66.738281-47.378906 66.71875-88.457031c.015625-18.015625-5.289063-35.636719-15.246094-50.648438l7.648438-6.257812c3.832031-3.136719 7.886718-6.023438 11.863281-9.007813l20.152343 60.464844c-8.859374 9.644531-10.945312 23.714844-5.265624 35.515625 5.675781 11.804688 17.972656 18.953125 31.039062 18.050781 13.0625-.898437 24.261719-9.671875 28.265625-22.140625s.003906-26.121094-10.09375-34.457031l19.300781-25.746094c18.429688-24.480469 39.636719-46.734375 63.203125-66.320312l8.796875 19.960937c-40.558594 22.351563-58.15625 71.382813-41.074218 114.425782 17.085937 43.042968 63.519531 66.660156 108.367187 55.109374 44.847656-11.546874 74.101563-54.648437 68.273437-100.589843-5.828124-45.945313-44.917968-80.378907-91.230468-80.359375zm-249.375-84.6875c-2.566406-2.566406-3.335938-6.425782-1.945313-9.777344 1.386719-3.355469 4.660157-5.539062 8.289063-5.535156h63.03125c4.421875 0 8 3.582031 8 8 0 4.417968-3.578125 8-8 8h-16c-2.121094 0-4.15625.84375-5.65625 2.34375l-7.511719 7.511718c-8.347656 7.800782-21.3125 7.800782-29.664063 0zm-90.625 168.6875c-4.417969 0-8-3.582032-8-8v-56h16v16h16v-16h32v16h16v-16h16v56c0 4.417968-3.578125 8-8 8zm-8-104c0-4.417969 3.582031-8 8-8h80c4.421875 0 8 3.582031 8 8v24h-16v-16h-16v16h-32v-16h-16v16h-16zm52 188c-26.320313.019531-50.777344-13.59375-64.632813-35.980469-13.851562-22.382813-15.125-50.34375-3.367187-73.894531v17.875c0 13.253906 10.746094 24 24 24h21.472656c3.339844 9.582031 12.378906 16.007812 22.527344 16.007812 10.152344 0 19.191406-6.425781 22.53125-16.007812h13.46875c13.257812 0 24-10.746094 24-24v-20.351563l4.480468-3.90625c14.632813 23.433594 15.398438 52.960938 2 77.117188-13.398437 24.160156-38.851562 39.144531-66.480468 39.140625zm140.875-171.035156c2.542968-1.445313 5.09375-2.894532 7.6875-4.261719 1.253906-.664063 2.527344-1.289063 3.792968-1.929688 2.871094-1.460937 5.757813-2.894531 8.6875-4.253906.992188-.457031 1.992188-.898437 2.984376-1.34375 3.261718-1.464844 6.550781-2.890625 9.871093-4.226563l2.335938-.949218c3.535156-1.382813 7.097656-2.695313 10.6875-3.9375l1.078125-.335938v6.960938c.019531 5.132812-2.882813 9.832031-7.488282 12.109375l-22.527343 11.265625c-5.117188 2.5625-11.289063 1.628906-15.421875-2.328125l-5.039063-4.863281c1.109375-.65625 2.238281-1.273438 3.351563-1.90625zm-.875 127.035156c-8.835938 0-16-7.164063-16-16 0-8.835938 7.164062-16 16-16 8.839844 0 16 7.164062 16 16 0 8.835937-7.160156 16-16 16zm26.867187-75.824219-21.265625 28.390625c-5.09375-1.03125-10.375-.652344-15.273437 1.097656l-20.453125-61.378906c4.460937-3.039062 8.964844-5.992188 13.550781-8.796875 2.832031 2.742187 5.601563 5.421875 8.070313 7.789063 9.023437 8.636718 22.488281 10.679687 33.664062 5.113281l22.53125-11.265625c10.03125-4.984375 16.355469-15.238282 16.308594-26.4375v-11.890625c8.960937-2.445313 18.039062-4.433594 27.203125-5.957031l5 11.335937c-25.949219 21.097656-49.234375 45.273437-69.335938 72zm129.132813 119.824219c-34.433594.03125-64.578125-23.113282-73.445313-56.386719-8.863281-33.273437 5.769531-68.347656 35.65625-85.453125l21.367188 48.429688c-8.316407 7.914062-9.84375 20.613281-3.636719 30.269531 6.203125 9.65625 18.390625 13.546875 29.042969 9.273437 10.652343-4.277344 16.765625-15.511718 14.574219-26.777344-2.195313-11.269531-12.078126-19.390624-23.558594-19.355468-.605469 0-1.175782.132812-1.765625.175781l-21.433594-48.535156c28.554687-9.171875 59.828125-.691407 79.84375 21.640625 20.011719 22.335937 25.019531 54.351562 12.78125 81.730468-12.238281 27.378907-39.433594 45.003907-69.425781 44.988282zm0-84c4.421875 0 8 3.582031 8 8 0 4.417968-3.578125 8-8 8-4.417969 0-8-3.582032-8-8 0-4.417969 3.582031-8 8-8zm0 0" data-original="#000000" class="active-path" data-old_color="#000000" fill="#E03033"/><path d="m405.046875 429.28125c-8.757813 3.3125-18.285156 4.023438-27.4375 2.046875-2.832031-.714844-5.828125.167969-7.820313 2.308594-1.988281 2.136719-2.65625 5.191406-1.734374 7.960937.917968 2.773438 3.273437 4.828125 6.144531 5.355469 12.195312 2.664063 24.898437 1.714844 36.5625-2.730469 2.707031-.992187 4.671875-3.363281 5.140625-6.210937.46875-2.847657-.632813-5.722657-2.878906-7.53125-2.25-1.808594-5.296876-2.269531-7.976563-1.199219zm0 0" data-original="#000000" class="active-path" data-old_color="#000000" fill="#E03033"/><path d="m429.289062 345.871094c-3.625 2.527344-4.511718 7.515625-1.984374 11.136718 11.472656 16.484376 11.472656 38.367188 0 54.847657-1.707032 2.34375-2.011719 5.421875-.800782 8.054687 1.210938 2.632813 3.75 4.402344 6.636719 4.632813 2.890625.226562 5.675781-1.125 7.285156-3.535157 15.308594-21.980468 15.308594-51.171874 0-73.152343-2.53125-3.621094-7.515625-4.507813-11.136719-1.984375zm0 0" data-original="#000000" class="active-path" data-old_color="#000000" fill="#E03033"/><path d="m263.902344 32.433594c-13.253906 0-24 10.742187-24 24 0 13.253906 10.746094 24 24 24 13.257812 0 24-10.746094 24-24 0-13.257813-10.742188-24-24-24zm0 32c-4.417969 0-8-3.582032-8-8 0-4.417969 3.582031-8 8-8 4.421875 0 8 3.582031 8 8 0 4.417968-3.578125 8-8 8zm0 0" data-original="#000000" class="active-path" data-old_color="#000000" fill="#E03033"/><path d="m319.902344 56.433594c0-24.367188-15.753906-45.933594-38.964844-53.347656-23.207031-7.410157-48.546875 1.035156-62.667969 20.890624-14.121093 19.855469-13.785156 46.5625.835938 66.054688l38.398437 51.199219c1.511719 2.015625 3.882813 3.203125 6.398438 3.203125 2.519531 0 4.890625-1.1875 6.402344-3.203125l38.398437-51.199219c7.25-9.703125 11.179687-21.484375 11.199219-33.597656zm-24 24-32 42.664062-32-42.664062c-12.375-16.503906-10.171875-39.710938 5.085937-53.589844 15.257813-13.882812 38.570313-13.882812 53.832031 0 15.257813 13.878906 17.460938 37.085938 5.082032 53.589844zm0 0" data-original="#000000" class="active-path" data-old_color="#000000" fill="#E03033"/><path d="m255.902344 160.433594h16v16h-16zm0 0" data-original="#000000" class="active-path" data-old_color="#000000" fill="#E03033"/><path d="m255.902344 192.433594h16v16h-16zm0 0" data-original="#000000" class="active-path" data-old_color="#000000" fill="#E03033"/><path d="m255.902344 224.433594h16v16h-16zm0 0" data-original="#000000" class="active-path" data-old_color="#000000" fill="#E03033"/></g> </svg>
