<svg xmlns="http://www.w3.org/2000/svg" xmlns:xlink="http://www.w3.org/1999/xlink" version="1.1" x="0px" y="0px" viewBox="0 0 100 100" style="enable-background:new 0 0 100 100;max-width:100%" xml:space="preserve" height="100%"><path d="M78.1,45.4l0.7-3.4H82c0.8,0,1.4-0.6,1.4-1.4c0-0.8-0.6-1.4-1.4-1.4H66.6L66,37.7c0.2,0,0.4,0.1,0.7,0.1h4.5  c0.8,0,1.4-0.6,1.4-1.4v-6.5c0-0.8-0.6-1.4-1.4-1.4h-4.5c-1.5,0-2.8,0.7-3.6,1.8l-2.4-6c-0.2-0.5-0.7-0.9-1.3-0.9h-7.3  c-0.8,0-1.4,0.6-1.4,1.4s0.6,1.4,1.4,1.4h6.3L63.9,40L45.4,51.8l-2.5-6.3c0-0.2-0.1-0.3-0.2-0.4l-3-7.5l3.4-0.4  c1.4-0.2,2.4-1.3,2.4-2.7v-1c0-1.4-1.1-2.6-2.4-2.7L31,29.4c-0.1,0-0.2,0-0.3,0c-1,0-1.9,0.5-2.4,1.4c-0.5,0.9-0.5,2.1,0.2,3  l2.6,3.4c0.5,0.7,1.3,1.1,2.2,1.1c0.1,0,0.2,0,0.3,0l3.3-0.4l2,5.1l-4.1-1.9c-0.2-0.1-0.4-0.1-0.6-0.1H16c-0.8,0-1.4,0.6-1.4,1.4  c0,0.8,0.6,1.4,1.4,1.4h4.9l0.7,1.8c-6.5,2-11.2,8.1-11.2,15.2c0,8.8,7.1,16,16,16c6.2,0,11.7-3.6,14.3-8.8c0.3,0.4,0.6,0.7,1,1  c1.2,1,2.7,1.5,4.2,1.5c0.5,0,1-0.1,1.6-0.2c0.3-0.1,0.6-0.2,0.9-0.3l1.2,2.1h-1.8c-0.8,0-1.4,0.6-1.4,1.4s0.6,1.4,1.4,1.4h7  c0.8,0,1.4-0.6,1.4-1.4S55.6,72,54.9,72h-2l-2.1-3.6c0.9-0.9,1.5-2,1.8-3.3c0.5-2,0-4-1.1-5.6l13.8-16.3l1.3,3.2  c-5.2,2.6-8.8,8-8.8,14.2c0,8.8,7.1,16,16,16c8.8,0,15.9-7.1,15.9-16C89.6,53.4,84.7,47.3,78.1,45.4z M49.9,64.5  c-0.1,0.5-0.3,1-0.6,1.4l-1.8-3c-0.4-0.7-1.2-0.9-1.9-0.5c-0.7,0.4-0.9,1.2-0.5,1.9l1.9,3.2c0,0-0.1,0-0.1,0c-1.3,0.3-2.5,0-3.5-0.8  c-0.8-0.6-1.3-1.5-1.5-2.5c0-0.2-0.1-0.4-0.1-0.6c0-0.8-0.6-1.4-1.4-1.4h-1l-15,0.1c0.6-1.6,2.1-2.7,3.8-2.7h11.2h2.7H46  c1.1,0,2,0.4,2.8,1.1c0.1,0.1,0.3,0.3,0.4,0.4C49.9,62,50.2,63.2,49.9,64.5z M29,56.7l-3.6-9.2c0.4,0,0.7,0,1,0  c5.9,0,10.9,3.9,12.6,9.2H29z M33.3,35.5l-2.6-3.4l12.2,1.3v1L33.3,35.5z M34,43.7l6.4,3.1l4,10h-2.5c-1.7-6.9-8-12-15.4-12  c-0.7,0-1.4,0.1-2.1,0.2l-0.5-1.2H34z M26.4,73.9c-7.3,0-13.2-5.9-13.2-13.2c0-6,4-11,9.4-12.6l3.6,9c-2,0.6-3.6,2.2-4.3,4.2  c-0.3,0.8-0.2,1.7,0.4,2.4c0.5,0.7,1.4,1.2,2.3,1.2h14.4C37.1,70.1,32.2,73.9,26.4,73.9z M49.4,57.7c-0.6-0.4-1.3-0.6-2-0.8l-1-2.4  l12.4-7.9L49.4,57.7z M64.8,33.1c0-1,0.8-1.9,1.9-1.9h3.1V35h-3.1C65.6,35,64.8,34.2,64.8,33.1z M75.9,41.9l-0.6,2.9  c-0.6-0.1-1.2-0.1-1.7-0.1c-1.6,0-3.1,0.2-4.6,0.7l-1.4-3.5H75.9z M74.8,47.5l-1.7,8.3L70.1,48c1.1-0.3,2.3-0.5,3.6-0.5  C74,47.5,74.4,47.5,74.8,47.5z M73.6,73.9c-7.3,0-13.2-5.9-13.2-13.2c0-5.1,2.9-9.5,7.1-11.7l4.8,12.2c0.2,0.5,0.7,0.9,1.3,0.9h0.1  c0.6-0.1,1.1-0.5,1.2-1.1l2.6-12.9c5.4,1.7,9.3,6.7,9.3,12.6C86.8,68,80.9,73.9,73.6,73.9z" style="" fill="#E03033"></path></svg>