<svg xmlns="http://www.w3.org/2000/svg" xmlns:xlink="http://www.w3.org/1999/xlink" version="1.1" id="Слой_1" x="0px" y="0px" viewBox="0 0 64 64" style="enable-background:new 0 0 64 64;max-width:100%" xml:space="preserve" height="100%">
<linearGradient id="SVGID_1__48304" gradientUnits="userSpaceOnUse" x1="15.5" y1="28.5833" x2="15.5" y2="32.337" spreadMethod="reflect" style="" fill="currentColor">
	<stop offset="0" style="stop-color:#6DC7FF" fill="currentColor"></stop>
	<stop offset="1" style="stop-color:#E6ABFF" fill="currentColor"></stop>
</linearGradient>
<circle style="" cx="15.5" cy="30.5" r="1.5" fill="#E03033"></circle>
<linearGradient id="SVGID_2__48304" gradientUnits="userSpaceOnUse" x1="48.5" y1="28.5833" x2="48.5" y2="32.337" spreadMethod="reflect" style="" fill="currentColor">
	<stop offset="0" style="stop-color:#6DC7FF" fill="currentColor"></stop>
	<stop offset="1" style="stop-color:#E6ABFF" fill="currentColor"></stop>
</linearGradient>
<circle style="" cx="48.5" cy="30.5" r="1.5" fill="#E03033"></circle>
<linearGradient id="SVGID_3__48304" gradientUnits="userSpaceOnUse" x1="32" y1="37.9167" x2="32" y2="40.8381" spreadMethod="reflect" style="" fill="#currentColor">
	<stop offset="0" style="stop-color:#6DC7FF" fill="#currentColor"></stop>
	<stop offset="1" style="stop-color:#E6ABFF" fill="#currentColor"></stop>
</linearGradient>
<path style="" d="M29.5,38c0,1,1.119,2.5,2.5,2.5c1.381,0,2.5-1.5,2.5-2.5H29.5z" fill="#E03033"></path>
<linearGradient id="SVGID_4__48304" gradientUnits="userSpaceOnUse" x1="32" y1="11.75" x2="32" y2="52.6294" spreadMethod="reflect" style="" fill="currentColor">
	<stop offset="0" style="stop-color:#1A6DFF" fill="currentColor"></stop>
	<stop offset="1" style="stop-color:#C822FF" fill="currentColor"></stop>
</linearGradient>
<path style="" d="M57.988,39H58v-5.556c1.19-0.694,2-1.97,2-3.444s-0.81-2.75-2-3.444V24  c0-6.617-5.383-12-12-12c-6.361,0-11.567,4.978-11.962,11.242C33.382,23.089,32.702,23,32,23s-1.382,0.089-2.038,0.242  C29.567,16.978,24.361,12,18,12c-6.617,0-12,5.383-12,12v2.556C4.81,27.25,4,28.526,4,30c0,2.206,1.794,4,4,4h0.835  c0.234,0.535,0.519,1.041,0.839,1.522C5.534,38.292,3,42.987,3,48v4h2v-4c0-4.41,2.266-8.533,5.951-10.919  C12.761,38.882,15.251,40,18,40v-2c-4.411,0-8-3.589-8-8v-2h1c3.416,0,6.57-1.262,9.022-3.339c1.09,1.336,2.542,2.336,4.173,2.876  C23.439,28.854,23,30.375,23,32c-1.654,0-3,1.346-3,3s1.346,3,3,3h0.232c0.167,0.734,0.425,1.433,0.76,2.086  C21.457,42.364,20,45.577,20,49v1h-6v2h36v-2h-6v-1c0-3.423-1.457-6.636-3.991-8.914c0.335-0.654,0.592-1.353,0.76-2.086H41  c1.654,0,3-1.346,3-3s-1.346-3-3-3c0-1.603-0.426-3.106-1.164-4.411c2.742-0.806,4.964-2.738,6.171-5.244  C47.49,25.4,50.473,27.597,54,27.949V30c0,4.411-3.589,8-8,8v2c2.749,0,5.239-1.118,7.049-2.919C56.734,39.467,59,43.59,59,48v4h2  v-4C61,44.711,59.906,41.562,57.988,39z M56,32h-0.201C55.931,31.354,56,30.685,56,30v-2c1.103,0,2,0.897,2,2S57.103,32,56,32z   M39,32v4c0,3.859-3.141,7-7,7s-7-3.141-7-7v-4c0-3.859,3.141-7,7-7S39,28.141,39,32z M8,32c-1.103,0-2-0.897-2-2s0.897-2,2-2v2  c0,0.685,0.069,1.354,0.201,2H8z M11,26h-1H9H8v-2c0-5.514,4.486-10,10-10c1.788,0,3.464,0.478,4.917,1.303  C22.264,21.33,17.108,26,11,26z M21.462,23.271c1.638-1.841,2.796-4.117,3.279-6.634c1.985,1.819,3.242,4.419,3.256,7.314  c-0.951,0.475-1.805,1.11-2.528,1.874C23.884,25.467,22.459,24.558,21.462,23.271z M22,35c0-0.552,0.448-1,1-1v2  C22.448,36,22,35.552,22,35z M42,49v1H22v-1c0-2.752,1.13-5.341,3.106-7.225C26.759,43.744,29.234,45,32,45s5.241-1.256,6.894-3.225  C40.87,43.659,42,46.248,42,49z M41,34c0.552,0,1,0.448,1,1s-0.448,1-1,1V34z M47,18h-2c0,3.858-2.73,7.12-6.45,7.847  c-0.727-0.774-1.588-1.417-2.548-1.896C36.03,18.46,40.503,14,46,14c5.514,0,10,4.486,10,10v2h-1C50.589,26,47,22.411,47,18z   M54.326,35.522c0.32-0.481,0.605-0.988,0.839-1.522H56v2.827C55.476,36.356,54.918,35.918,54.326,35.522z" fill="#E03033"></path>
</svg>