<?xml version="1.0"?>
<svg xmlns="http://www.w3.org/2000/svg" height="512px" viewBox="0 -56 456.48118 456" width="512px" class=""><g><path d="m429.804688 124.578125c-2.144532-4.082031-4.441407-8.042969-6.808594-12-.351563-.578125-.679688-1.160156-1.042969-1.738281-.957031-1.597656-1.820313-3.199219-2.8125-4.726563l31.804687-10.296875c3.839844-1.242187 6.152344-5.148437 5.394532-9.113281-.710938-3.992187-4.339844-6.792969-8.386719-6.460937l-45.910156 3.0625c-1.273438-1.511719-2.472657-3.097657-3.785157-4.574219l39.304688-32.328125c2.59375-2.152344 3.5625-5.691406 2.425781-8.863282-1.136719-3.171874-4.136719-5.289062-7.503906-5.296874h-69.601563l26.015626-17.34375c2.929687-1.957032 4.238281-5.59375 3.222656-8.964844s-4.117188-5.683594-7.636719-5.691406h-152c-.441406.050781-.878906.136718-1.304687.261718-2.242188-.0625-4.449219-.261718-6.695313-.261718-105.175781.046874-197.171875 70.800781-224.21875 172.4375-1.121094 4.238281 1.375 8.59375 5.601563 9.761718l115.582031 31.878906c10.507812 2.917969 21.515625 3.539063 32.28125 1.824219.289062-.046875.574219-.105469.855469-.183593l26.519531-7.199219 67.378906 97.96875v29.511719c0 4.417968 3.582031 8 8 8h32c4.417969 0 8-3.582032 8-8v-29.929688l9.3125-16.761719 10.023437 5.152344c7.707032 4.015625 17.210938 1.105469 21.351563-6.535156l8.878906-16.207031c3.988281-7.355469 1.664063-16.539063-5.34375-21.113282l-9.863281-6.398437 3.734375-6.730469 105.503906-74c.71875-.507812 1.351563-1.128906 1.871094-1.839844 1.558594-2.132812 1.960937-4.902344 1.074219-7.390625-1.863282-5.230469-3.953125-10.398437-6.222656-15.511719-1.410157-3.199218-2.984376-6.3125-4.53125-9.433593-.832032-1.644531-1.597657-3.320313-2.46875-4.964844zm-12.746094 10.222656c1.144531 2.230469 2.25 4.464844 3.304687 6.71875 1.839844 4 3.625 8 5.222657 12.089844.082031.191406.167968.375.25.574219l-97.882813 68.65625-83.636719-45.597656c-.8125-.410157-1.691406-.683594-2.59375-.800782-.207031 0-.40625-.058594-.617187-.074218-.207031-.015626-.414063-.125-.621094-.125-.710937 0-1.417969.09375-2.105469.277343l-56 15.273438-1.144531.3125c4.148437-7.125 10.789063-12.460938 18.640625-14.976563l202.9375-65.230468.65625-.1875c4.070312 6.019531 7.757812 12.203124 11.199219 18.480468.78125 1.527344 1.605469 3.058594 2.390625 4.609375zm-266.175782 2.136719 25.886719-15.527344 10.503907 5.488282-28.589844 7.886718zm178.960938-32.800781 54.75-3.648438-188.070312 60.90625-55.625-5.105469zm-100.136719-4.984375 34.152344-8.511719c5.558594-1.375 11.382813-1.28125 16.894531.28125l18.136719 5.183594-34.238281 9.445312-16.121094 4.449219zm157.488281-32.046875c-6.90625-6.738281-14.222656-13.039063-21.914062-18.863281h44.882812zm-29.113281-50.863281-20.550781 13.703124c-9.296875-5.226562-18.945312-9.804687-28.871094-13.703124zm-207.199219 184.167968c-8.382812 1.269532-16.941406.757813-25.113281-1.503906l-107.871093-29.746094c22.472656-73.742187 82.570312-129.902344 157.664062-147.332031 75.097656-17.425781 153.785156 6.519531 206.441406 62.828125l-52.65625 3.511719-44.199218-12.625c-8.207032-2.34375-16.886719-2.492188-25.167969-.421875l-53.441407 13.359375c-3.164062.792969-5.53125 3.429687-5.976562 6.660156-.449219 3.230469 1.109375 6.410156 3.9375 8.035156l22.328125 12.800781-16.953125 4.679688-29.6875-15.511719c-2.472656-1.289062-5.433594-1.203125-7.824219.230469l-77.335937 46.402344-32.441406-6.542969c-4.332032-.886719-8.558594 1.910156-9.441407 6.242187-.886719 4.332032 1.910157 8.558594 6.242188 9.445313l35.480469 7.152344c.210937.03125.425781.054687.640624.0625.070313 0 .136719.054687.214844.0625l78.136719 7.203125c-5.21875 5.617187-9.054687 12.378906-11.199219 19.742187l-.648437 2.222657zm88.664063-7.601562 78.023437 42.632812-33.792968 60.800782h-23.085938l-63.199218-92zm40.9375 135.433594h-16v-16h16zm51.527344-63.960938-8.863281 16.199219-9.601563-4.917969 9.488281-17.082031zm0 0" data-original="#000000" class="active-path" data-old_color="#000000" fill="#E03033"/><path d="m360.484375 160.242188h-72c-3.59375 0-6.746094 2.398437-7.707031 5.859374-.960938 3.464844.503906 7.144532 3.585937 8.996094l40 24c2.789063 1.675782 6.316407 1.496094 8.917969-.457031l32-24c2.757812-2.066406 3.878906-5.664063 2.792969-8.929687-1.089844-3.265626-4.148438-5.46875-7.589844-5.46875zm-32.496094 22.398437-10.625-6.398437h19.121094zm0 0" data-original="#000000" class="active-path" data-old_color="#000000" fill="#E03033"/><path d="m128.484375 80.242188h48c.777344 0 1.550781-.113282 2.292969-.335938l80-24c3.804687-1.140625 6.199218-4.898438 5.621094-8.824219-.574219-3.929687-3.945313-6.84375-7.914063-6.839843h-65.449219c-10.8125.011718-21.476562 2.527343-31.152344 7.351562l-34.976562 17.488281c-3.324219 1.65625-5.070312 5.382813-4.21875 8.996094.855469 3.613281 4.082031 6.164063 7.796875 6.164063zm38.558594-18.335938c7.457031-3.71875 15.671875-5.65625 24-5.664062h10.945312l-26.671875 8h-12.945312zm0 0" data-original="#000000" class="active-path" data-old_color="#000000" fill="#E03033"/><path d="m396.058594 129.082031c-3.953125-1.976562-8.761719-.375-10.734375 3.582031l-8 16c-1.976563 3.953126-.371094 8.761719 3.582031 10.738282 3.957031 1.972656 8.761719.367187 10.738281-3.585938l8-16c1.976563-3.953125.371094-8.761718-3.585937-10.734375zm0 0" data-original="#000000" class="active-path" data-old_color="#000000" fill="#E03033"/></g> </svg>
