<svg xmlns="http://www.w3.org/2000/svg" xmlns:xlink="http://www.w3.org/1999/xlink" version="1.1" x="0px" y="0px" viewBox="0 0 100 100" style="enable-background:new 0 0 100 100;max-width:100%" xml:space="preserve" height="100%"><path d="M79.2,13.3h-4c-3.7,0-6.7,3-6.7,6.7v6.8c-0.5-0.9-1-1.8-1.6-2.6c-0.1-0.1-0.1-0.2-0.2-0.3c0,0,0,0,0,0  C62,17.5,54.5,13.3,46,13.3h-7.9c-1.3,0-2.4,0.7-3,1.8s-0.6,2.4,0,3.6l12.6,19.7L20.2,61.8c-0.2,0.1-0.4,0.3-0.5,0.6c0,0,0,0,0,0  c0,0.1-0.1,0.2-0.1,0.2c0,0,0,0,0,0.1c0,0.1,0,0.1,0,0.2c0,0,0,0.1,0,0.1c0,0,0,0,0,0.1c0,0,0,0.1,0,0.1c0,0.1,0,0.1,0,0.2  c0,0,0,0.1,0,0.1c0,0.1,0,0.1,0.1,0.2c0,0,0,0,0,0c0,0.1,0.1,0.2,0.1,0.2c0,0,0,0,0,0c0,0.1,0.1,0.1,0.1,0.1  c0.3,0.3,0.7,0.5,1.1,0.5c0,0,0,0,0.1,0h6.2v3c-4.6,0.7-8.1,4.7-8.1,9.5c0,5.3,4.3,9.6,9.6,9.6s9.6-4.3,9.6-9.6  c0-4.8-3.5-8.8-8.1-9.5v-3H46c1,0,2-0.1,2.9-0.2l7.1,7.1c-1.2,1.6-1.9,3.5-1.9,5.7c0,5.3,4.3,9.6,9.6,9.6s9.6-4.3,9.6-9.6  s-4.3-9.6-9.6-9.6c-2.1,0-4.1,0.7-5.7,1.9l-5.6-5.6c11-2.9,19.1-12.9,19.1-24.8c0-0.5,0-0.9,0-1.4V20c0-2,1.7-3.7,3.7-3.7h4  c0.8,0,1.5-0.7,1.5-1.5S80.1,13.3,79.2,13.3z M35.6,77.1c0,3.7-3,6.6-6.6,6.6c-3.7,0-6.6-3-6.6-6.6c0-3.1,2.2-5.8,5.1-6.5v6.5  c0,0.8,0.7,1.5,1.5,1.5s1.5-0.7,1.5-1.5v-6.5C33.4,71.3,35.6,73.9,35.6,77.1z M63.7,70.4c3.7,0,6.6,3,6.6,6.6c0,3.7-3,6.6-6.6,6.6  c-3.7,0-6.6-3-6.6-6.6c0-1.3,0.4-2.5,1-3.5l4.6,4.6c0.3,0.3,0.7,0.4,1.1,0.4s0.8-0.1,1.1-0.4c0.6-0.6,0.6-1.5,0-2.1l-4.6-4.6  C61.2,70.8,62.4,70.4,63.7,70.4z M37.6,17.1c-0.1-0.2-0.1-0.4,0-0.5s0.2-0.3,0.4-0.3H46c7.1,0,13.4,3.3,17.6,8.4L50,36.3L37.6,17.1z   M46,61.5H25.2l40.1-34.3c1.9,3.1,3,6.7,3.3,10.5v1.3c0,0.1,0,0.2,0,0.3C68.4,51.5,58.3,61.5,46,61.5z" style="" fill="#E03033"></path></svg>