<?xml version="1.0"?>
<svg xmlns="http://www.w3.org/2000/svg" height="512px" viewBox="0 -92 479.99223 479" width="512px" class=""><g><path d="m391.972656 120.457031c-6.1875.007813-12.355468.667969-18.402344 1.96875l-2.65625-9.96875h12.699219c13.445313-.011719 24.34375-10.910156 24.359375-24.359375v-39.640625c0-4.417969-3.582031-8-8-8h-48c-2.199218.019531-4.289062.945313-5.777344 2.5625l-13.703124-27.363281c-4.640626-9.289062-14.136719-15.160156-24.519532-15.160156-10.386718 0-19.878906 5.871094-24.519531 15.160156l-10.683594 21.226562c-1.972656 3.953126-.367187 8.761719 3.585938 10.734376 3.953125 1.976562 8.761719.371093 10.734375-3.582032l10.632812-21.265625c1.929688-3.871093 5.882813-6.316406 10.207032-6.316406 4.328124 0 8.277343 2.445313 10.210937 6.316406l23.054687 46.113281-8.839843 4.414063-12.480469 9.210937c-15.019531 11.191407-24.933594 27.929688-27.527344 46.476563l-8.945312 62.585937c-1.421875 9.652344-9.671875 16.824219-19.429688 16.886719h-3.058594c-6.902343-6.4375-16.449218-9.222656-25.734374-7.511719l-2.398438-10.640624-10.410156-45.847657h-.085938l-5.882812-25.773437c-.824219-3.632813-4.050782-6.214844-7.773438-6.226563h-.65625v-15.054687l1.886719-.945313h10.113281c11.042969 0 20-8.953125 20-20 0-11.042969-8.957031-20-20-20h-60c-4.417968 0-8 3.582031-8 8v15.640625c.011719 13.449219 10.910156 24.347656 24.359375 24.359375h15.640625v7.9375l-16-.066406c-2.441406 0-4.746094 1.113281-6.265625 3.019531-1.519531 1.910156-2.085937 4.40625-1.535156 6.78125l6.085937 26.402344-14.871093 8.726562c-8.953125-12.476562-21.007813-22.402343-34.96875-28.800781h19.554687v-24c0-4.417969-3.582031-8-8-8-4.417968 0-8 3.582031-8 8v8h-96c-4.417968 0-8 3.582031-8 8s3.582032 8 8 8h19.550782c-37.050782 16.859375-57.691407 56.941407-49.894532 96.890625 7.796875 39.953125 41.992188 69.335938 82.660156 71.027344 40.671876 1.691406 77.1875-24.75 88.273438-63.917969h35.410156c0 17.675781 14.324219 32 32 32 5.691406-.027343 11.273438-1.59375 16.152344-4.535156l10.191406 10.191406c1.5 1.5 3.535156 2.34375 5.65625 2.34375h16c4.417969 0 8-3.582031 8-8s-3.582031-8-8-8h-12.6875l-7.851562-7.847656c4.605468-7.414063 5.769531-16.457031 3.203125-24.800781 14.9375-2.902344 26.421875-14.917969 28.648437-29.976563l8.941406-62.582031c2.007813-14.34375 9.671876-27.289062 21.28125-35.953125l10.6875-8 6.574219-3.285156 4.730469 17.742187.550781 3.847656c.195313 1.175782.65625 2.292969 1.34375 3.265626l4.890625 18.328124c-41.769531 17.359376-63.558594 63.570313-50.382812 106.839844 13.179687 43.269532 57.027344 69.488282 101.382812 60.621094 44.355469-8.871094 74.75-49.933594 70.277344-94.945312-4.476562-45.011719-42.359375-79.289063-87.589844-79.253907zm-201.890625-32h-13.75c-4.617187-.003906-8.355469-3.742187-8.359375-8.359375v-7.640625h52c2.207032 0 4 1.792969 4 4 0 2.210938-1.792968 4-4 4h-12c-1.242187 0-2.464844.289063-3.578125.839844zm26.015625 100.800781 4.128906 18.207032c-3.113281 2.464844-5.746093 5.488281-7.757812 8.914062h-6.128906l-12.894532-55.921875h16.125zm-16.285156-60.800781h.160156.160156 2.078126l3.664062 16h-16.121094l-3.71875-16.109375zm-54.242188 36.929688-34.910156 20.496093c-6-6.046874-14.171875-9.441406-22.6875-9.425781-.144531 0-.28125.039063-.425781.039063l-10.664063-39.09375c26.332032-4.34375 52.867188 6.480468 68.648438 28zm14.402344 43.070312c-.007812 2.675781-.167968 5.34375-.472656 8h-40.664062c1.585937-5.46875 1.507812-11.285156-.222657-16.710937l35.0625-20.59375c4.148438 9.214844 6.292969 19.203125 6.296875 29.304687zm-72-16c8.835938 0 16 7.164063 16 16 0 8.835938-7.164062 16-16 16-8.835937 0-16-7.164062-16-16 0-8.835937 7.164063-16 16-16zm0 88c-34.496094-.074219-64.09375-24.605469-70.566406-58.488281s12-67.597656 44.039062-80.382812l10.695313 39.199218c-10.558594 6.019532-16.773437 17.519532-16.027344 29.648438.746094 12.128906 8.324219 22.777344 19.542969 27.457031 11.214844 4.679687 24.113281 2.570313 33.257812-5.433594h46.855469c-10.171875 28.730469-37.320312 47.953125-67.796875 48zm79.527344-109.421875 10.535156-6.183594 11.902344 51.605469h-14.398438c.242188-2.640625.410157-5.296875.410157-8-.007813-12.945312-2.894531-25.730469-8.449219-37.421875zm56.472656 61.421875c0-8.835937 7.164063-16 16-16 8.835938 0 16 7.164063 16 16 0 8.835938-7.164062 16-16 16-8.835937 0-16-7.164062-16-16zm168-176v31.640625c-.003906 4.617188-3.746094 8.355469-8.359375 8.359375h-16.707031l-5.710938-40zm0 224c-33.933594.007813-63.261718-23.691406-70.375-56.871093-7.117187-33.179688 9.917969-66.820313 40.871094-80.726563l12.894531 48.351563c-8.234375 7.980468-9.65625 20.679687-3.394531 30.285156 6.265625 9.605468 18.460938 13.421875 29.085938 9.101562 10.621093-4.320312 16.695312-15.5625 14.480468-26.8125-2.214844-11.253906-12.097656-19.355468-23.5625-19.328125-.617187 0-1.203125.136719-1.808594.183594l-12.464843-46.75c26.898437-5.449219 54.558593 4.875 71.3125 26.609375 16.757812 21.738281 19.695312 51.109375 7.582031 75.738281-12.113281 24.628907-37.175781 40.226563-64.621094 40.21875zm0-80c4.417969 0 8 3.582031 8 8s-3.582031 8-8 8c-4.417968 0-8-3.582031-8-8s3.582032-8 8-8zm0 0" data-original="#000000" class="active-path" data-old_color="##1C1C1" fill="#E03033"/></g> </svg>
