<svg xmlns="http://www.w3.org/2000/svg" height="512px" viewBox="-40 0 480 480.00503" width="512px" class=""><g><path d="m376.003906 32.003906h-90.800781c-6.753906-19.175781-24.871094-32.003906-45.199219-32.003906-20.332031 0-38.449218 12.828125-45.203125 32.003906h-170.796875c-13.257812 0-23.99999975 10.746094-23.99999975 24v400c0 13.257813 10.74218775 24 23.99999975 24h352c13.253906 0 24-10.742187 24-24v-400c0-13.253906-10.746094-24-24-24zm-280 16v52.6875l-10.34375-10.34375c-3.125-3.121094-8.191406-3.121094-11.3125 0l-10.34375 10.34375v-52.6875zm184 416h-256c-4.417968 0-8-3.582031-8-8v-400c0-4.417968 3.582032-8 8-8h24v72c0 3.234375 1.949219 6.152344 4.9375 7.390625 2.988282 1.238281 6.429688.554688 8.71875-1.734375l18.34375-18.34375 18.34375 18.34375c2.285156 2.289063 5.726563 2.972656 8.714844 1.734375s4.9375-4.15625 4.941406-7.390625v-72h80v96h16v-96c0-17.671875 14.324219-32 32-32 17.671875 0 32 14.328125 32 32v68c0 11.046875-8.957031 20-20 20-11.046875 0-20-8.953125-20-20v-60c0-4.417968 3.582032-8 8-8 4.417969 0 8 3.582032 8 8v64h16v-64c0-13.253906-10.746094-24-24-24-13.257812 0-24 10.746094-24 24v60c0 19.882813 16.117188 36 36 36 19.882813 0 36-16.117187 36-36v-68h24c4.417969 0 8 3.582032 8 8v400c0 4.417969-3.582031 8-8 8zm54.527344 0c.945312-2.5625 1.445312-5.265625 1.472656-8v-400c-.027344-2.730468-.527344-5.4375-1.472656-8h9.472656c4.417969 0 8 3.582032 8 8v400c0 4.417969-3.582031 8-8 8zm49.472656-8c0 4.417969-3.582031 8-8 8h-9.472656c.945312-2.5625 1.445312-5.265625 1.472656-8v-400c-.027344-2.730468-.527344-5.4375-1.472656-8h9.472656c4.417969 0 8 3.582032 8 8zm0 0" data-original="#000000" class="active-path" data-old_color="#000000" fill="#E03033"/><path d="m48.003906 184.003906h240v16h-240zm0 0" data-original="#000000" class="active-path" data-old_color="#000000" fill="#E03033"/><path d="m48.003906 232.003906h240v16h-240zm0 0" data-original="#000000" class="active-path" data-old_color="#000000" fill="#E03033"/><path d="m48.003906 280.003906h240v16h-240zm0 0" data-original="#000000" class="active-path" data-old_color="#000000" fill="#E03033"/><path d="m48.003906 328.003906h240v16h-240zm0 0" data-original="#000000" class="active-path" data-old_color="#000000" fill="#E03033"/><path d="m48.003906 376.003906h240v16h-240zm0 0" data-original="#000000" class="active-path" data-old_color="#000000" fill="#E03033"/></g> </svg>