<svg xmlns="http://www.w3.org/2000/svg" xmlns:xlink="http://www.w3.org/1999/xlink" version="1.1" x="0px" y="0px" viewBox="0 0 128 128" style="enable-background:new 0 0 128 128;max-width:100%" xml:space="preserve" height="100%"><path d="M120,35H78c-4.3999023,0-8,3.5996017-8,8v3h4v-3c0-2.2061005,1.7944031-4,4-4h42c2.2055969,0,4,1.7938995,4,4v42  c0,2.2061005-1.7944031,4-4,4H78c-2.2055969,0-4-1.7938995-4-4V58h-4v27c0,4.4003983,3.6000977,8,8,8h42  c4.3998947,0,8-3.5996017,8-8V43C128,38.5996017,124.3998947,35,120,35z" style="" fill="#E03033"></path><path d="M54,85c0,2.2061005-1.7943993,4-4,4H8c-2.2055702,0-4-1.7938995-4-4V43c0-2.2061005,1.7944298-4,4-4h42  c2.2056007,0,4,1.7938995,4,4v3h4v-3c0-4.4003983-3.6001015-8-8-8H8c-4.3999,0-8,3.5996017-8,8v42c0,4.4003983,3.6001,8,8,8h42  c4.3998985,0,8-3.5996017,8-8V58h-4V85z" style="" fill="#E03033"></path><path d="M83.8705978,50H42l3.2001991-2.4003983c0.8833008-0.6621017,1.0625-1.9160004,0.3999023-2.7998009  c-0.6621017-0.8828011-1.9160004-1.0625-2.8003006-0.3994026l-8,6C34.2963982,50.7773018,34,51.3700981,34,52  s0.2963982,1.2226982,0.7998009,1.5996017l8,6C43.1596985,59.8700981,43.5811005,60,43.9985008,60  c0.6078987,0,1.2084999-0.2764015,1.6016006-0.7998009c0.6625977-0.8838005,0.4833984-2.1376991-0.3999023-2.7998009L42,54  h41.8705978c7.7168045,0,14.0088043,5.3652,14.1274033,12c-0.1185989,6.6348038-6.4105988,12-14.1274033,12h-3.389595  c-1.1044998,0-2,0.8955002-2,2s0.8955002,2,2,2h3.389595c9.8530045,0,17.8955002-7.0566025,18.1244965-15.8086014L102,65.8086014  h-0.0049057C101.766098,57.0565987,93.7236023,50,83.8705978,50z" style="" fill="#E03033"></path><path d="M10,61c-1.1044903,0-2,0.8955002-2,2v20c0,1.1044998,0.8955097,2,2,2h14c1.1044998,0,2-0.8955002,2-2s-0.8955002-2-2-2H12  V63C12,61.8955002,11.1044998,61,10,61z" style="" fill="#E03033"></path><path d="M104,85h14c1.1044998,0,2-0.8955002,2-2V63c0-1.1044998-0.8955002-2-2-2s-2,0.8955002-2,2v18h-12  c-1.1044998,0-2,0.8955002-2,2S102.8955002,85,104,85z" style="" fill="#E03033"></path></svg>