<svg xmlns="http://www.w3.org/2000/svg" xmlns:xlink="http://www.w3.org/1999/xlink" viewBox="0 0 64 64" version="1.1" style="max-width:100%" height="100%">
<g id="surface1" style="" fill="currentColor">
<path style="" d="M 32.167969 0.523438 C 31.617188 0.523438 31.070313 0.617188 30.546875 0.796875 L 11.816406 7.222656 C 10.996094 7.503906 10.464844 8.246094 10.464844 9.113281 C 10.464844 9.980469 10.996094 10.722656 11.816406 11.003906 L 18.359375 13.25 L 17.671875 17.75 C 17.582031 18.328125 17.75 18.914063 18.128906 19.355469 C 18.167969 19.402344 18.214844 19.433594 18.253906 19.472656 C 18.25 19.496094 18.234375 19.515625 18.230469 19.542969 C 18.167969 19.902344 18.125 20.734375 18.074219 22.109375 C 17.9375 22.121094 17.8125 22.144531 17.703125 22.171875 C 16.804688 22.414063 16.171875 23.214844 15.921875 24.433594 C 15.722656 25.410156 15.785156 26.597656 16.101563 27.777344 C 16.636719 29.773438 17.757813 31.273438 18.984375 31.734375 C 19.398438 33.003906 19.949219 34.265625 20.597656 35.476563 L 8.253906 41.378906 C 4.453125 43.195313 2 47.089844 2 51.300781 L 2 59 C 2 60.652344 3.347656 62 5 62 L 59 62 C 60.652344 62 62 60.652344 62 59 L 62 51.300781 C 62 47.089844 59.546875 43.195313 55.746094 41.378906 L 43.402344 35.472656 C 44.050781 34.265625 44.601563 33.003906 45.015625 31.734375 C 46.242188 31.273438 47.363281 29.773438 47.898438 27.777344 C 48.214844 26.597656 48.277344 25.410156 48.078125 24.433594 C 47.828125 23.214844 47.195313 22.414063 46.296875 22.171875 C 46.1875 22.140625 46.066406 22.117188 45.925781 22.109375 C 45.890625 21.015625 45.851563 20.125 45.796875 19.695313 C 45.9375 19.597656 46.074219 19.488281 46.1875 19.355469 C 46.566406 18.910156 46.734375 18.324219 46.644531 17.75 L 45.960938 13.253906 L 50 11.871094 L 50 14.472656 C 49.414063 15.042969 48 16.609375 48 18.5625 C 48 20.96875 50.164063 22.8125 50.257813 22.890625 C 50.445313 23.046875 50.671875 23.125 50.902344 23.125 C 51.128906 23.125 51.359375 23.046875 51.546875 22.890625 C 51.636719 22.8125 53.800781 20.96875 53.800781 18.5625 C 53.800781 16.8125 52.660156 15.367188 52 14.675781 L 52 11.183594 L 52.519531 11.003906 C 53.339844 10.722656 53.871094 9.980469 53.871094 9.113281 C 53.871094 8.246094 53.339844 7.503906 52.519531 7.222656 L 33.789063 0.796875 C 33.265625 0.617188 32.71875 0.523438 32.167969 0.523438 Z M 32.167969 2.523438 C 32.496094 2.523438 32.828125 2.578125 33.140625 2.6875 L 51.871094 9.113281 L 33.140625 15.542969 C 32.515625 15.757813 31.824219 15.757813 31.195313 15.542969 L 12.464844 9.113281 L 31.191406 2.6875 C 31.507813 2.578125 31.839844 2.523438 32.167969 2.523438 Z M 38.359375 6.203125 C 38.230469 6.191406 38.097656 6.203125 37.964844 6.242188 L 31.867188 8.160156 C 31.339844 8.324219 31.046875 8.886719 31.214844 9.414063 C 31.347656 9.839844 31.742188 10.113281 32.167969 10.113281 C 32.265625 10.113281 32.367188 10.097656 32.46875 10.066406 L 38.5625 8.152344 C 39.089844 7.988281 39.382813 7.425781 39.21875 6.898438 C 39.09375 6.503906 38.746094 6.242188 38.359375 6.203125 Z M 20.28125 13.910156 L 30.542969 17.433594 C 31.066406 17.613281 31.617188 17.703125 32.167969 17.703125 C 32.714844 17.703125 33.265625 17.613281 33.789063 17.433594 L 44.035156 13.917969 L 44.675781 18.050781 L 39.929688 18.015625 L 39.859375 18.015625 C 38.46875 18.015625 37.078125 18.34375 35.835938 18.964844 L 32.449219 20.65625 C 32.167969 20.800781 31.832031 20.800781 31.550781 20.65625 L 28.167969 18.96875 C 26.902344 18.332031 25.464844 18.023438 24.066406 18.015625 L 19.644531 18.050781 Z M 50.902344 16.125 C 51.410156 16.761719 51.9375 17.664063 51.9375 18.5625 C 51.9375 19.460938 51.410156 20.359375 50.902344 21 C 50.390625 20.359375 49.859375 19.460938 49.859375 18.5625 C 49.859375 17.664063 50.390625 16.761719 50.902344 16.125 Z M 39.863281 20.015625 L 39.917969 20.015625 L 43.828125 20.046875 C 43.878906 20.539063 43.925781 22.003906 43.949219 22.664063 C 43.957031 23.003906 43.964844 23.28125 43.972656 23.433594 C 43.988281 23.792969 44.195313 24.113281 44.515625 24.277344 C 44.832031 24.441406 45.214844 24.421875 45.515625 24.226563 C 45.695313 24.109375 45.785156 24.105469 45.78125 24.105469 C 45.8125 24.113281 46.007813 24.277344 46.121094 24.835938 C 46.257813 25.503906 46.203125 26.386719 45.96875 27.261719 C 45.476563 29.101563 44.53125 29.882813 44.238281 29.882813 C 43.796875 29.882813 43.40625 30.171875 43.28125 30.597656 C 41.589844 36.261719 37.175781 42 32 42 C 26.824219 42 22.410156 36.261719 20.726563 30.59375 C 20.597656 30.171875 20.210938 29.878906 19.765625 29.878906 C 19.472656 29.878906 18.527344 29.101563 18.035156 27.257813 C 17.800781 26.386719 17.746094 25.503906 17.882813 24.832031 C 17.996094 24.273438 18.191406 24.109375 18.214844 24.105469 C 18.21875 24.105469 18.304688 24.105469 18.484375 24.222656 C 18.785156 24.417969 19.167969 24.4375 19.488281 24.277344 C 19.808594 24.113281 20.015625 23.792969 20.03125 23.433594 L 20.054688 22.746094 C 20.078125 22.070313 20.125 20.601563 20.183594 20.046875 L 24.085938 20.015625 L 24.144531 20.015625 C 25.226563 20.015625 26.308594 20.273438 27.277344 20.753906 L 30.660156 22.449219 C 31.082031 22.65625 31.539063 22.765625 32 22.765625 C 32.464844 22.765625 32.921875 22.65625 33.34375 22.449219 L 36.730469 20.753906 C 37.699219 20.273438 38.78125 20.015625 39.863281 20.015625 Z M 20.242188 37.859375 L 27.941406 60 L 25.5 60 L 17.25 49 L 19.800781 45.597656 C 19.960938 45.386719 20.027344 45.121094 19.988281 44.859375 L 19.070313 38.421875 Z M 43.761719 37.863281 L 44.929688 38.421875 L 44.011719 44.859375 C 43.976563 45.121094 44.042969 45.386719 44.203125 45.601563 L 46.730469 48.972656 L 38.226563 59.367188 C 38.074219 59.550781 38.015625 59.777344 38.015625 60 L 36.058594 60 Z M 22.605469 38.5625 C 25.074219 41.730469 28.355469 44 32 44 C 35.644531 44 38.929688 41.730469 41.398438 38.5625 L 34.058594 59.671875 C 34.019531 59.78125 34.011719 59.890625 34.011719 60 L 29.988281 60 C 29.988281 59.890625 29.984375 59.78125 29.945313 59.671875 Z M 17.179688 39.328125 L 17.953125 44.730469 L 15.199219 48.402344 C 14.933594 48.753906 14.933594 49.246094 15.199219 49.597656 L 23 60 L 5 60 C 4.449219 60 4 59.550781 4 59 L 4 51.300781 C 4 47.855469 6.007813 44.667969 9.117188 43.183594 Z M 46.820313 39.328125 L 54.882813 43.183594 C 57.992188 44.667969 60 47.855469 60 51.300781 L 60 59 C 60 59.550781 59.550781 60 59 60 L 40.292969 60 L 48.777344 49.632813 C 49.066406 49.277344 49.078125 48.769531 48.800781 48.402344 L 46.046875 44.734375 Z M 7 54 C 6.445313 54 6 54.449219 6 55 L 6 57 C 6 57.550781 6.445313 58 7 58 C 7.554688 58 8 57.550781 8 57 L 8 55 C 8 54.449219 7.554688 54 7 54 Z M 12 54 C 11.445313 54 11 54.449219 11 55 L 11 57 C 11 57.550781 11.445313 58 12 58 C 12.554688 58 13 57.550781 13 57 L 13 55 C 13 54.449219 12.554688 54 12 54 Z M 17 54 C 16.445313 54 16 54.449219 16 55 L 16 57 C 16 57.550781 16.445313 58 17 58 C 17.554688 58 18 57.550781 18 57 L 18 55 C 18 54.449219 17.554688 54 17 54 Z M 47 54 C 46.445313 54 46 54.449219 46 55 L 46 57 C 46 57.550781 46.445313 58 47 58 C 47.554688 58 48 57.550781 48 57 L 48 55 C 48 54.449219 47.554688 54 47 54 Z M 52 54 C 51.445313 54 51 54.449219 51 55 L 51 57 C 51 57.550781 51.445313 58 52 58 C 52.554688 58 53 57.550781 53 57 L 53 55 C 53 54.449219 52.554688 54 52 54 Z M 57 54 C 56.445313 54 56 54.449219 56 55 L 56 57 C 56 57.550781 56.445313 58 57 58 C 57.554688 58 58 57.550781 58 57 L 58 55 C 58 54.449219 57.554688 54 57 54 Z " fill="#E03033"></path>
</g>
</svg>