<svg xmlns="http://www.w3.org/2000/svg" xmlns:xlink="http://www.w3.org/1999/xlink" version="1.1" x="0px" y="0px" viewBox="0 0 100 100" enable-background="new 0 0 100 100" xml:space="preserve" style="max-width:100%" height="100%"><path d="M83.509,46.47c-1.223,0-2.398,0.203-3.502,0.566l-4.415-9.158l2.757-2.225c0.386-0.312,0.59-0.795,0.545-1.29  c-0.047-0.493-0.337-0.932-0.774-1.167l-3.672-1.975c-0.72-0.388-1.618-0.119-2.006,0.603c-0.387,0.721-0.117,1.618,0.603,2.006  l1.707,0.918l-1.935,1.562c-0.535,0.433-0.703,1.177-0.405,1.796l0.727,1.508l-18.277,1.979l-1.822-3.781h3.766  c0.817,0,1.481-0.662,1.481-1.48c0-0.818-0.664-1.481-1.481-1.481h-9.996c-0.817,0-1.481,0.664-1.481,1.481  c0,0.818,0.664,1.48,1.481,1.48h2.979c0.024,0.099,0.058,0.198,0.104,0.293l0.224,0.463h-5.701l-2.24-3.104  c-0.478-0.664-1.404-0.814-2.067-0.335c-0.663,0.479-0.814,1.404-0.335,2.067l2.684,3.719c0.278,0.387,0.725,0.615,1.201,0.615  h7.887l0.192,0.399l-21.183,2.293l-3.333-6.413h3.893c0.818,0,1.481-0.662,1.481-1.48c0-0.818-0.663-1.481-1.481-1.481h-9.996  c-0.818,0-1.481,0.664-1.481,1.481c0,0.818,0.664,1.48,1.481,1.48h2.816c0.028,0.113,0.065,0.226,0.121,0.333l3.729,7.174  l-4.097,3.765c-1.952-1.631-4.46-2.616-7.197-2.616c-6.201,0-11.244,5.043-11.244,11.243c0,6.2,5.043,11.243,11.244,11.243  c5.695,0,10.404-4.261,11.133-9.761h4.188c0.609,1.674,2.202,2.879,4.084,2.879c1.882,0,3.474-1.205,4.083-2.879h16.927  c0.609,1.674,2.201,2.879,4.084,2.879c2.404,0,4.359-1.957,4.359-4.36c0-0.781-0.223-1.504-0.584-2.139L75.037,43.55l2.302,4.775  c-3.052,2.012-5.073,5.467-5.073,9.388c0,6.2,5.043,11.243,11.242,11.243c6.201,0,11.244-5.043,11.244-11.243  C94.753,51.514,89.709,46.47,83.509,46.47z M57.877,54.668c-0.431,0.44-0.757,0.975-0.972,1.564H43.251l12.792-5.37L57.877,54.668z   M60.99,53.353c-0.15,0-0.292,0.029-0.438,0.044l-1.775-3.683l11.064-4.644l-7.324,8.573C62.04,53.464,61.529,53.353,60.99,53.353z   M66.332,43.331l-8.843,3.711l-1.261-2.617L66.332,43.331z M53.103,44.764l1.652,3.427l-15.666,6.575  c-0.797-0.863-1.928-1.413-3.193-1.413c-0.194,0-0.379,0.033-0.567,0.057l-3.308-6.363L53.103,44.764z M32.698,54.772  c-0.387,0.42-0.687,0.914-0.886,1.46h-4.188c-0.242-1.829-0.92-3.519-1.934-4.962l3.51-3.226L32.698,54.772z M23.483,53.298  c0.558,0.881,0.955,1.871,1.147,2.934h-4.34L23.483,53.298z M16.491,65.993c-4.567,0-8.281-3.714-8.281-8.28  c0-4.566,3.713-8.28,8.281-8.28c1.873,0,3.597,0.633,4.985,1.686l-5.989,5.504c-0.449,0.413-0.599,1.059-0.378,1.628  c0.222,0.569,0.771,0.943,1.382,0.943h8.139C23.929,63.055,20.55,65.993,16.491,65.993z M83.509,65.993  c-4.566,0-8.279-3.714-8.279-8.28c0-2.746,1.349-5.177,3.413-6.685l3.532,7.328c0.256,0.53,0.785,0.838,1.336,0.838  c0.216,0,0.434-0.047,0.642-0.147c0.737-0.355,1.046-1.241,0.691-1.977l-3.534-7.332c0.702-0.194,1.437-0.306,2.199-0.306  c4.566,0,8.281,3.714,8.281,8.28C91.79,62.279,88.075,65.993,83.509,65.993z" style="" fill="#E03033"></path></svg>