<svg xmlns="http://www.w3.org/2000/svg" xmlns:xlink="http://www.w3.org/1999/xlink" viewBox="0 0 64 64" version="1.1" style="max-width:100%" height="100%">
<g id="surface1" style="" fill="currentColor">
<path style="" d="M 32 6 C 30.105469 6 27.402344 6.589844 25.699219 7.71875 C 23.859375 7.800781 22.34375 8.625 21.308594 9.976563 C 21.257813 9.972656 21.210938 9.96875 21.15625 9.96875 L 20.488281 9.96875 C 19.039063 9.96875 16.921875 10.386719 15.5 11.3125 C 12.921875 11.453125 11.09375 13.347656 10.808594 16.214844 C 10.632813 17.960938 10.800781 19.257813 10.898438 20.03125 C 10.929688 20.265625 10.964844 20.558594 10.964844 20.625 C 10.953125 20.671875 10.945313 20.714844 10.9375 20.761719 C 10.910156 20.769531 10.882813 20.777344 10.855469 20.78125 C 9.546875 21.132813 8.996094 22.878906 9.546875 24.9375 C 9.917969 26.316406 10.664063 27.34375 11.527344 27.742188 C 12.011719 29.179688 12.714844 30.554688 13.5625 31.75 L 4.578125 37.5625 C 1.710938 39.417969 0 42.566406 0 45.980469 L 0 49.191406 C 0 50.742188 1.257813 52 2.804688 52 L 8 52 L 8 55 C 8 56.652344 9.347656 58 11 58 L 53 58 C 54.652344 58 56 56.652344 56 55 L 56 52 L 61.109375 52 C 62.660156 52 63.917969 50.742188 63.917969 49.191406 L 63.917969 45.980469 C 63.917969 42.566406 62.203125 39.417969 59.335938 37.5625 L 51.074219 32.21875 C 52.070313 30.921875 52.902344 29.375 53.453125 27.742188 C 54.316406 27.34375 55.0625 26.316406 55.433594 24.9375 C 55.984375 22.878906 55.433594 21.132813 54.125 20.78125 C 54.101563 20.777344 54.070313 20.769531 54.042969 20.765625 C 53.957031 20.246094 53.824219 19.738281 53.625 19.140625 C 53.722656 19.167969 53.820313 19.203125 53.90625 19.238281 C 54.25 19.382813 54.648438 19.324219 54.933594 19.085938 C 55.21875 18.847656 55.347656 18.46875 55.269531 18.105469 C 54.15625 13.007813 50.375 9.96875 45.15625 9.96875 L 44.488281 9.96875 C 43.941406 9.96875 43.292969 10.035156 42.628906 10.164063 C 40.324219 7.488281 36.941406 6 32.855469 6 Z M 32 8 L 32.855469 8 C 37.90625 8 41.570313 10.542969 43.128906 15.039063 C 42.574219 15.011719 42.019531 15.117188 41.613281 15.503906 C 41.257813 15.847656 40.917969 16.492188 41.332031 17.625 C 41.855469 19.042969 42.042969 19.878906 42.097656 21.066406 C 42.113281 21.425781 42.320313 21.746094 42.640625 21.910156 C 42.957031 22.074219 43.339844 22.054688 43.640625 21.859375 C 43.691406 21.828125 43.730469 21.808594 43.753906 21.796875 C 43.9375 22.023438 44.171875 22.945313 43.8125 24.296875 C 43.421875 25.742188 42.691406 26.410156 42.46875 26.433594 C 42.023438 26.433594 41.636719 26.722656 41.511719 27.148438 C 40.117188 31.828125 36.3125 36.804688 32 36.804688 C 27.683594 36.804688 23.878906 31.828125 22.488281 27.148438 C 22.363281 26.722656 21.976563 26.433594 21.53125 26.433594 C 21.308594 26.410156 20.574219 25.742188 20.1875 24.296875 C 19.800781 22.851563 20.097656 21.894531 20.191406 21.78125 C 20.191406 21.78125 20.246094 21.789063 20.355469 21.859375 C 20.65625 22.054688 21.039063 22.074219 21.359375 21.910156 C 21.675781 21.75 21.882813 21.425781 21.902344 21.066406 C 21.921875 20.628906 21.96875 20.1875 22.046875 19.765625 C 22.113281 19.378906 22.058594 18.933594 21.980469 18.316406 C 21.859375 17.363281 21.671875 15.925781 21.871094 13.945313 C 22.136719 11.292969 23.683594 9.710938 26.027344 9.710938 C 26.242188 9.710938 26.453125 9.640625 26.625 9.511719 C 27.757813 8.664063 30.117188 8 32 8 Z M 44.488281 11.96875 L 45.15625 11.96875 C 48.882813 11.96875 51.625 13.789063 52.863281 17.023438 C 52.488281 17.050781 52.132813 17.171875 51.84375 17.449219 C 51.578125 17.703125 51.183594 18.289063 51.570313 19.339844 C 51.96875 20.421875 52.113281 21.058594 52.15625 21.960938 C 52.171875 22.320313 52.410156 22.625 52.730469 22.785156 C 52.984375 22.917969 53.292969 22.921875 53.5625 22.816406 C 53.644531 23.089844 53.703125 23.648438 53.5 24.417969 C 53.230469 25.417969 52.746094 25.882813 52.660156 25.921875 C 52.21875 25.921875 51.828125 26.210938 51.703125 26.636719 C 50.96875 29.105469 49.515625 31.378906 47.8125 32.722656 C 47.378906 33.066406 47.304688 33.695313 47.644531 34.128906 C 47.84375 34.378906 48.136719 34.511719 48.433594 34.511719 C 48.652344 34.511719 48.871094 34.441406 49.050781 34.296875 C 49.277344 34.117188 49.5 33.921875 49.71875 33.71875 L 58.25 39.238281 C 60.542969 40.726563 61.914063 43.246094 61.914063 45.980469 L 61.914063 49.191406 L 61.917969 49.191406 C 61.917969 49.636719 61.554688 50 61.109375 50 L 56 50 L 56 49.917969 C 56 45.296875 53.515625 40.984375 49.515625 38.667969 L 40.59375 33.503906 C 41.734375 31.910156 42.648438 30.105469 43.25 28.28125 C 44.324219 27.851563 45.273438 26.566406 45.742188 24.816406 C 46.40625 22.339844 45.785156 20.25 44.269531 19.84375 C 44.1875 19.820313 44.089844 19.800781 43.984375 19.789063 C 43.863281 18.9375 43.640625 18.121094 43.261719 17.066406 C 43.53125 17.117188 43.878906 17.214844 44.171875 17.335938 C 44.515625 17.480469 44.910156 17.417969 45.191406 17.175781 C 45.480469 16.9375 45.609375 16.5625 45.53125 16.199219 C 45.1875 14.640625 44.644531 13.234375 43.925781 12 C 44.117188 11.984375 44.308594 11.96875 44.488281 11.96875 Z M 20.269531 11.976563 C 20.089844 12.53125 19.945313 13.109375 19.882813 13.746094 C 19.664063 15.953125 19.859375 17.527344 19.996094 18.574219 C 20.035156 18.898438 20.089844 19.308594 20.078125 19.421875 C 20.054688 19.542969 20.035156 19.664063 20.015625 19.789063 C 19.914063 19.800781 19.816406 19.820313 19.734375 19.84375 C 18.214844 20.25 17.59375 22.339844 18.257813 24.816406 C 18.726563 26.566406 19.675781 27.851563 20.75 28.28125 C 21.355469 30.105469 22.265625 31.910156 23.40625 33.503906 L 14.488281 38.667969 C 10.484375 40.984375 8 45.296875 8 49.917969 L 8 50 L 2.804688 50 C 2.363281 50 2 49.636719 2 49.191406 L 2 45.980469 C 2 43.246094 3.371094 40.726563 5.667969 39.238281 L 14.84375 33.300781 C 14.9375 33.398438 15.027344 33.5 15.121094 33.589844 C 15.316406 33.777344 15.566406 33.871094 15.816406 33.871094 C 16.078125 33.871094 16.339844 33.769531 16.535156 33.566406 C 16.917969 33.167969 16.910156 32.535156 16.511719 32.152344 C 15.085938 30.773438 13.90625 28.765625 13.277344 26.636719 C 13.148438 26.210938 12.8125 25.929688 12.371094 25.929688 C 12.234375 25.882813 11.75 25.417969 11.480469 24.417969 C 11.277344 23.65625 11.335938 23.101563 11.414063 22.828125 C 11.6875 22.949219 12.007813 22.945313 12.28125 22.804688 C 12.601563 22.640625 12.808594 22.320313 12.824219 21.964844 C 12.839844 21.628906 12.875 21.296875 12.933594 20.972656 C 12.992188 20.636719 12.945313 20.277344 12.882813 19.78125 C 12.789063 19.042969 12.648438 17.933594 12.800781 16.410156 C 12.996094 14.4375 14.097656 13.304688 15.828125 13.304688 C 16.042969 13.304688 16.253906 13.234375 16.425781 13.105469 C 17.234375 12.5 18.882813 12.023438 20.269531 11.976563 Z M 27 12.953125 C 26.453125 13.003906 25.9375 13.296875 25.617188 13.78125 L 24.246094 15.863281 C 23.941406 16.324219 24.070313 16.945313 24.53125 17.25 C 24.699219 17.359375 24.890625 17.410156 25.078125 17.410156 C 25.40625 17.410156 25.722656 17.253906 25.917969 16.964844 L 27.21875 14.984375 L 28.441406 15.582031 C 30.898438 16.777344 33.640625 17.410156 36.375 17.410156 L 38.5625 17.410156 C 39.113281 17.410156 39.5625 16.964844 39.5625 16.410156 C 39.5625 15.859375 39.113281 15.410156 38.5625 15.410156 L 36.375 15.410156 C 33.941406 15.410156 31.5 14.847656 29.316406 13.785156 L 27.980469 13.136719 C 27.667969 12.980469 27.328125 12.925781 27 12.953125 Z M 24.675781 35.078125 C 26.699219 37.292969 29.226563 38.804688 32 38.804688 C 34.773438 38.804688 37.296875 37.292969 39.324219 35.078125 L 48.511719 40.398438 C 51.898438 42.359375 54 46.007813 54 49.917969 L 54 55 C 54 55.550781 53.550781 56 53 56 L 11 56 C 10.449219 56 10 55.550781 10 55 L 10 49.917969 C 10 46.007813 12.101563 42.359375 15.488281 40.398438 Z M 39.9375 39 C 39.808594 39.007813 39.675781 39.042969 39.550781 39.105469 L 32 42.882813 L 24.449219 39.105469 C 23.953125 38.855469 23.351563 39.058594 23.105469 39.550781 C 22.859375 40.046875 23.058594 40.648438 23.550781 40.894531 L 31.550781 44.894531 C 31.695313 44.964844 31.847656 45 32 45 C 32.152344 45 32.308594 44.964844 32.449219 44.894531 L 40.449219 40.894531 C 40.941406 40.648438 41.140625 40.046875 40.894531 39.550781 C 40.710938 39.183594 40.328125 38.976563 39.9375 39 Z M 12 50 C 11.449219 50 11 50.449219 11 51 L 11 53 C 11 53.550781 11.449219 54 12 54 C 12.550781 54 13 53.550781 13 53 L 13 51 C 13 50.449219 12.550781 50 12 50 Z M 17 50 C 16.449219 50 16 50.449219 16 51 L 16 53 C 16 53.550781 16.449219 54 17 54 C 17.550781 54 18 53.550781 18 53 L 18 51 C 18 50.449219 17.550781 50 17 50 Z M 22 50 C 21.449219 50 21 50.449219 21 51 L 21 53 C 21 53.550781 21.449219 54 22 54 C 22.550781 54 23 53.550781 23 53 L 23 51 C 23 50.449219 22.550781 50 22 50 Z M 27 50 C 26.449219 50 26 50.449219 26 51 L 26 53 C 26 53.550781 26.449219 54 27 54 C 27.550781 54 28 53.550781 28 53 L 28 51 C 28 50.449219 27.550781 50 27 50 Z M 32 50 C 31.449219 50 31 50.449219 31 51 L 31 53 C 31 53.550781 31.449219 54 32 54 C 32.550781 54 33 53.550781 33 53 L 33 51 C 33 50.449219 32.550781 50 32 50 Z M 37 50 C 36.449219 50 36 50.449219 36 51 L 36 53 C 36 53.550781 36.449219 54 37 54 C 37.550781 54 38 53.550781 38 53 L 38 51 C 38 50.449219 37.550781 50 37 50 Z M 42 50 C 41.449219 50 41 50.449219 41 51 L 41 53 C 41 53.550781 41.449219 54 42 54 C 42.550781 54 43 53.550781 43 53 L 43 51 C 43 50.449219 42.550781 50 42 50 Z M 47 50 C 46.449219 50 46 50.449219 46 51 L 46 53 C 46 53.550781 46.449219 54 47 54 C 47.550781 54 48 53.550781 48 53 L 48 51 C 48 50.449219 47.550781 50 47 50 Z M 52 50 C 51.449219 50 51 50.449219 51 51 L 51 53 C 51 53.550781 51.449219 54 52 54 C 52.550781 54 53 53.550781 53 53 L 53 51 C 53 50.449219 52.550781 50 52 50 Z " fill="#E03033"></path>
</g>
</svg>