<svg xmlns="http://www.w3.org/2000/svg" xmlns:xlink="http://www.w3.org/1999/xlink" version="1.1" x="0px" y="0px" viewBox="0 0 64 64" style="enable-background:new 0 0 64 64;max-width:100%" xml:space="preserve" height="100%"><g style="" fill="currentColor"><path d="M54.09,38.288C49.1,35.294,46,29.819,46,24v-0.615c0-3.657-0.683-7.233-2.025-10.633c-0.066-0.794-0.436-1.496-1.001-1.994   C42.794,9.711,41.153,2,32,2s-10.794,7.711-10.974,8.759c-0.565,0.498-0.935,1.2-1.001,1.994C18.683,16.152,18,19.728,18,23.385V24   c0,5.819-3.1,11.294-8.09,14.288l-2.779,1.668l1.314,0.876c1.654,1.103,3.067,2.479,4.24,4.071C12.259,45.81,12,46.804,12,47.851   V63h40V47.851c0-1.046-0.259-2.041-0.686-2.948c1.173-1.592,2.587-2.968,4.24-4.071l1.314-0.876L54.09,38.288z M37,12   c-0.552,0-1-0.449-1-1s0.448-1,1-1s1,0.449,1,1S37.552,12,37,12z M41,12c0.552,0,1,0.449,1,1s-0.448,1-1,1s-1-0.449-1-1   S40.448,12,41,12z M32,4c6.127,0,8.128,4.025,8.747,6.026c-0.302,0.026-0.593,0.086-0.862,0.195C39.539,8.945,38.383,8,37,8   c-0.68,0-1.301,0.236-1.805,0.619C34.465,7.642,33.311,7,32,7s-2.465,0.642-3.195,1.619C28.301,8.236,27.68,8,27,8   c-1.383,0-2.538,0.945-2.884,2.22c-0.269-0.109-0.561-0.169-0.862-0.195C23.873,8.023,25.874,4,32,4z M34,11c0,1.103-0.897,2-2,2   s-2-0.897-2-2s0.897-2,2-2S34,9.897,34,11z M28,11c0,0.551-0.448,1-1,1s-1-0.449-1-1s0.448-1,1-1S28,10.449,28,11z M23,12   c0.552,0,1,0.449,1,1s-0.448,1-1,1s-1-0.449-1-1S22.448,12,23,12z M20,23.385c0-2.726,0.412-5.403,1.216-7.987   C21.716,15.771,22.33,16,23,16c1.383,0,2.539-0.945,2.884-2.22C26.23,13.919,26.605,14,27,14c0.68,0,1.301-0.236,1.805-0.619   C29.535,14.358,30.689,15,32,15s2.465-0.642,3.195-1.619C35.699,13.764,36.32,14,37,14c0.395,0,0.77-0.081,1.116-0.22   C38.461,15.055,39.617,16,41,16c0.67,0,1.284-0.229,1.784-0.602C43.588,17.982,44,20.659,44,23.385V24c0,2.302-0.705,4.491-2,6.336   V20h-2.758c-2.469,0-4.789-0.961-6.535-2.707L32,16.586l-0.707,0.707C29.547,19.039,27.227,20,24.758,20H22v10.336   c-1.295-1.846-2-4.035-2-6.336V23.385z M39.929,44.372c0.333-0.834,0.625-1.679,0.879-2.533l5.24,1.123   c1.806,0.387,3.206,1.751,3.725,3.457c-1.549,0.718-2.836,1.868-3.726,3.333C44.78,47.515,42.383,46,39.636,46   c-0.939,0-1.849,0.179-2.697,0.513c-0.178-0.899-0.749-1.649-1.52-2.09l2.058-3.298l1.366,0.293   c-0.226,0.745-0.48,1.483-0.771,2.211L39.929,44.372z M42,58.586V61H22v-2.414l-1.429-1.429C19.558,56.144,19,54.796,19,53.364   C19,50.406,21.406,48,24.364,48c1.431,0,2.778,0.557,3.79,1.569L32,53.414l3.846-3.846C36.858,48.557,38.204,48,39.636,48   C42.594,48,45,50.406,45,53.364c0,1.433-0.558,2.78-1.571,3.793L42,58.586z M17.954,49.751c-0.889-1.465-2.177-2.615-3.726-3.333   c0.518-1.705,1.919-3.07,3.725-3.457l5.24-1.123c0.253,0.854,0.545,1.699,0.879,2.533l1.857-0.743   c-0.291-0.728-0.546-1.466-0.771-2.211l1.366-0.293l2.058,3.298c-0.771,0.442-1.342,1.192-1.52,2.09   C26.213,46.179,25.303,46,24.364,46C21.617,46,19.22,47.515,17.954,49.751z M40,29c0,4.411-3.589,8-8,8s-8-3.589-8-8v-7h0.758   c2.681,0,5.218-0.932,7.242-2.643C34.024,21.068,36.562,22,39.242,22H40V29z M36,39.713l-2.716,4.351   c-0.464,0.091-0.906,0.281-1.284,0.565c-0.378-0.284-0.82-0.474-1.284-0.565L28,39.713v-1.554C29.226,38.697,30.578,39,32,39   s2.774-0.303,4-0.841V39.713z M34.672,47.914l-0.238,0.238c-0.002,0.002-0.004,0.003-0.005,0.005L32,50.586l-2.429-2.429   c-0.002-0.002-0.004-0.003-0.005-0.005l-0.238-0.238C29.116,47.702,29,47.421,29,47.121C29,46.503,29.503,46,30.121,46   c0.295,0,0.584,0.12,0.793,0.328L32,47.414l1.086-1.086C33.295,46.12,33.584,46,33.879,46C34.497,46,35,46.503,35,47.121   C35,47.421,34.884,47.702,34.672,47.914z M26.026,37H26v2.191l-1.349,0.289c-0.326-1.462-0.534-2.949-0.612-4.454   C24.606,35.774,25.274,36.438,26.026,37z M38,39.191V37h-0.026c0.751-0.562,1.419-1.226,1.986-1.973   c-0.078,1.505-0.285,2.992-0.612,4.454L38,39.191z M10.811,40.08l0.129-0.078c3.999-2.399,6.905-6.225,8.24-10.593   c0.641,1.407,1.523,2.708,2.648,3.834L22,33.415v0.2c0,2.129,0.238,4.229,0.696,6.285l-5.163,1.106   c-1.451,0.311-2.706,1.086-3.662,2.129C12.968,42.002,11.947,40.979,10.811,40.08z M14,48.558c1.074,0.642,1.947,1.572,2.52,2.718   l0.554,1.107C17.03,52.705,17,53.03,17,53.364c0,1.967,0.766,3.816,2.157,5.207L20,59.414V61h-6V48.558z M44,61v-1.586l0.843-0.843   C46.234,57.18,47,55.331,47,53.364c0-0.333-0.03-0.659-0.073-0.981l0.554-1.107c0.572-1.146,1.446-2.076,2.52-2.718V61H44z    M50.129,43.135c-0.957-1.043-2.211-1.818-3.662-2.129l-5.163-1.106C41.762,37.844,42,35.744,42,33.615v-0.2l0.172-0.172   c1.126-1.126,2.008-2.426,2.648-3.833c1.335,4.368,4.241,8.194,8.24,10.593l0.129,0.078C52.053,40.979,51.032,42.002,50.129,43.135   z" style="" fill="#E03033"></path><circle cx="27" cy="25" r="1" style="" fill="#E03033"></circle><circle cx="37" cy="25" r="1" style="" fill="#E03033"></circle><path d="M32,32c-1.103,0-2-0.897-2-2h-2c0,2.206,1.794,4,4,4s4-1.794,4-4h-2C34,31.103,33.103,32,32,32z" style="" fill="#E03033"></path></g></svg>